<?xml version="1.0" encoding="UTF-8"?><svg id="Layer_2" xmlns="http://www.w3.org/2000/svg" viewBox="0 0 731.28 199.16"><g id="Layer_1-2"><path d="m550.4,2.24s39.19,136.62,43.76,136.62S634.96,3.27,635.37,2.95s47.65-.25,70.54-1.01c1.47,6.36,19.2,146.71,25.29,191.52.66,4.89-3.12,3.45-6.22,3.28-5.4-1.16-30.12,2.89-30.22-2.88-5.63-44.24-25.99-171.47-25.99-171.47l-57.9,173.94-34.2-.49-60.73-175.32-24.17,176.36s-22.92.01-32.73-.27c-4.74-1.36.7-13.93.21-17.93,2.23-16.06,2.94-32.36,5.68-48.38,4.84-38.57,17.73-127.87,17.73-127.87l67.74-.19Z"/><path d="m318.36,196.71c-22.61,0-45.23,0-67.84,0-2.08,0-5.56.4-5.47-2.5.84-62.4.68-124.91-.07-187.31-.49-3.19,1.06-5.11,4.44-4.55,42.01.04,84.02,0,126.03.07,23.6-.06,49.68,10.96,58.4,34.28,4.46,14.68,3.44,32.88-8.05,44.18-5.32,5.21-11.4,9.7-18.73,11.54-2.77,1.3-8.36,4.12-8.36,4.12,0,0,13.35,4.47,17.12,7.82,27.32,13.44,28.97,51.01,12.89,73.9-21.81,29.54-77.5,15.21-110.36,18.48h0Zm11.89-82.34v-.02c-16.36.12-34.35-.14-50.7.25-.13,8.22-.33,26.43-.33,26.43,0,0,.2,17.92.33,22.09,32.99-.28,67.85.68,100.81-.43,17.73.32,27.54-14.3,24.69-28.17-4.63-22.57-47.76-19.79-74.81-20.15Zm.33-33.52c21.75.23,66.36,2.84,69.72-13.67,3.85-18.9-9.28-32.04-26.31-30.8-30.97.07-61.94,0-92.9.04-1.42.09-1.74.41-1.85,1.82-.06,12.89,0,25.78,0,38.67,0,1.55-.06,3.83,2,3.87,16.44.15,32.9,0,49.34.05Z"/><path d="m120.36,198.87c-51.52,2.26-99.71-7.94-120.11-60.72-2.11-6.65,9.85-2.97,13.26-5.74,4.69-.31,20.78-10.38,21.35-3.47,11.66,33.51,53.06,37.78,83.72,36.83,21.69-2.99,60.97,2.39,67.2-25.13-.87-46.02-116.99-18.68-147.87-39.89C11.56,89.07,3.35,57.97,18.75,34.02c7.73-8.79,17.46-16.59,27.99-21.8C87.7-5.85,163.32-6.21,196.7,27.07c3.65,2.92,23.3,24.56,17.17,27.38-11.04,2.75-22.15,5.2-33.15,8.13-4.69.82-10.57-13.87-15.56-17.02-7.36-6.65-16.96-10.38-26.57-12.6-25.74-3.71-54.58-4.08-77.96,8.66-18.45,11.77-14.39,30.1,6.27,35.22,28.31,6.79,58,3.27,86.73,7.83,33.78,3.02,77.93,17.21,68.65,59.7-5.86,47.35-63.5,55.02-101.91,54.5Z"/></g></svg>